<?xml version="1.0" encoding="utf-8"?>
<!-- Svg Vector Icons : http://www.onlinewebfonts.com/icon -->
<!DOCTYPE svg PUBLIC "-//W3C//DTD SVG 1.1//EN" "http://www.w3.org/Graphics/SVG/1.1/DTD/svg11.dtd">
<svg version="1.1" xmlns="http://www.w3.org/2000/svg" xmlns:xlink="http://www.w3.org/1999/xlink" x="0px" y="0px" viewBox="0 0 256 256" enable-background="new 0 0 256 256" xml:space="preserve">
<metadata> Svg Vector Icons : http://www.onlinewebfonts.com/icon </metadata>
<g> <path fill="#319dd9" d="M192.8,246H63.2C33.8,246,10,222.2,10,192.8V63.2C10,33.8,33.8,10,63.2,10h129.5 c29.4,0,53.2,23.8,53.2,53.2v129.5C246,222.2,222.2,246,192.8,246z"/> <path fill="#f4c33b" d="M91.4,119c0.9-17.9,14.2-32.4,31.5-35.3c-6.7-12.6-19.9-21.3-35.2-21.3c-22,0-39.8,17.8-39.8,39.8 c0,15.7,9.1,29.3,22.3,35.7C73.8,128.7,81.7,121.6,91.4,119z"/> <path fill="#d9ecf5" d="M172.3,108.3c-2.5,0-5,0.3-7.3,0.8c-5-15-19.2-25.8-35.9-25.8c-2.1,0-4.2,0.3-6.2,0.6 c2.9,5.5,4.6,11.8,4.6,18.5c0,22-17.8,39.8-39.8,39.8c-6.3,0-12.2-1.5-17.4-4.1c-1.3,3.4-2,7.1-2,10.9c0,17.1,13.9,31,31,31h73.1 c19.8,0,35.8-16,35.8-35.8C208.1,124.3,192.1,108.3,172.3,108.3z"/> <path fill="#fdf8e0" d="M127.5,102.3c0-6.7-1.7-13-4.6-18.5c-17.3,2.9-30.6,17.4-31.5,35.3c-9.8,2.5-17.6,9.7-21.2,19 c5.3,2.6,11.2,4.1,17.4,4.1C109.7,142.1,127.5,124.3,127.5,102.3L127.5,102.3z"/></g>
</svg>